<svg width="46" height="14" viewBox="0 0 46 14" fill="none" xmlns="http://www.w3.org/2000/svg">
<path d="M6.02955 2.65463C6.09718 2.67734 6.09718 2.77504 6.02955 2.79775C5.08335 3.11426 4.77801 3.42803 4.46998 4.40026C4.44855 4.46975 4.35347 4.46975 4.33137 4.40026C4.02334 3.42801 3.71798 3.11495 2.7718 2.79775C2.70417 2.77504 2.70417 2.67734 2.7718 2.65463C3.71733 2.33743 4.02267 2.02435 4.33137 1.05212C4.35347 0.982626 4.44788 0.982626 4.46998 1.05212C4.77868 2.02437 5.08337 2.33743 6.02955 2.65463Z" fill="#7FEDED"/>
<path d="M0.997237 2.34706C1.0113 2.3044 1.06956 2.3044 1.08362 2.34706C1.27447 2.94912 1.46329 3.14315 2.04922 3.33925C2.0914 3.35301 2.0914 3.41356 2.04922 3.42732C1.46329 3.62342 1.27447 3.81813 1.08362 4.41951C1.06956 4.46217 1.01063 4.46217 0.997237 4.41951C0.80639 3.81815 0.617567 3.62342 0.0316393 3.42732C-0.0105464 3.41356 -0.0105464 3.35301 0.0316393 3.33925C0.617567 3.14315 0.80639 2.94844 0.997237 2.34706Z" fill="#7FEDED"/>
<path d="M8.02499 5.51965C8.02499 5.41162 7.96874 5.31185 7.87767 5.2575L6.54512 4.46691C6.45337 4.41255 6.34155 4.41255 6.25048 4.46691L4.91793 5.2575C4.82619 5.31185 4.77061 5.41163 4.77061 5.51965V8.31735C4.77061 8.42538 4.82686 8.52447 4.91793 8.57882L6.25048 9.36941C6.34155 9.42377 6.45405 9.42377 6.54512 9.36941L7.87767 8.57882C7.96941 8.52515 8.02499 8.42538 8.02499 8.31735V5.51965Z" fill="#7FEDED"/>
<path d="M11.0028 10.8956C11.1936 11.4969 11.3831 11.6916 11.9684 11.8877C12.0105 11.9015 12.0105 11.9621 11.9684 11.9758C11.3831 12.1719 11.1936 12.3666 11.0028 12.968C10.9894 13.0107 10.9304 13.0107 10.917 12.968C10.7262 12.3666 10.5374 12.1719 9.95145 11.9758C9.90927 11.9621 9.90927 11.9015 9.95145 11.8877C10.5367 11.6916 10.7262 11.4969 10.917 10.8956C10.9304 10.8529 10.9894 10.8529 11.0028 10.8956Z" fill="#7FEDED"/>
<path d="M4.52962 9.29436L5.83138 10.067C5.92044 10.12 5.97525 10.2177 5.97525 10.3223V11.7487C5.97525 11.9757 5.73554 12.1175 5.54402 12.0039L3.04037 10.5184C2.84886 10.4049 2.84886 10.1207 3.04037 10.0072L4.24168 9.29436C4.33142 9.24137 4.44056 9.24137 4.52962 9.29436Z" fill="#7FEDED"/>
<path d="M8.21458 4.50753L6.91282 3.73483C6.82443 3.68185 6.76962 3.58415 6.76895 3.48025V2.05389C6.76895 1.82683 7.00867 1.6844 7.20018 1.79862L9.70383 3.28346C9.89535 3.39699 9.89535 3.68116 9.70383 3.79469L8.50186 4.50753C8.41347 4.56051 8.30364 4.56051 8.21458 4.50753Z" fill="#7FEDED"/>
<path d="M3.8212 8.47351C3.90959 8.42121 3.9645 8.32351 3.9645 8.21824L3.96518 5.4626C3.96518 5.36352 3.91697 5.27064 3.83661 5.21628L2.63464 4.40161C2.44312 4.27156 2.18866 4.41262 2.18866 4.64793V8.93176C2.18866 9.15882 2.42838 9.30056 2.6199 9.18703L3.8212 8.47351Z" fill="#7FEDED"/>
<path d="M8.29694 9.2806C8.38601 9.22762 8.49515 9.22762 8.58421 9.2806L9.78609 9.99412C9.9776 10.1076 9.9776 10.3918 9.78609 10.5053L7.28244 11.9909C7.09026 12.1044 6.85121 11.962 6.85121 11.7349V10.3086C6.85121 10.204 6.90612 10.1063 6.99518 10.0533L8.29694 9.2806Z" fill="#7FEDED"/>
<path d="M10.6018 4.7724C10.6018 4.54534 10.3621 4.4036 10.1705 4.51713L8.96924 5.22986C8.88018 5.28284 8.82528 5.37985 8.82528 5.48582V8.21746C8.82528 8.32273 8.88018 8.41975 8.96924 8.47273L10.1705 9.18626C10.3627 9.2998 10.6018 9.15806 10.6018 8.93099V4.7724Z" fill="#7FEDED"/>
<path d="M24.768 10.032V12H17.184V10.032H20.144V3.856L17.184 5.296V3.328L20.912 1.28H22.256V10.032H24.768ZM30.9656 1.04C33.5736 1.04 35.3336 3.312 35.3336 6.64C35.3336 9.984 33.5736 12.24 30.9656 12.24C28.3576 12.24 26.5976 9.984 26.5976 6.64C26.5976 3.312 28.3576 1.04 30.9656 1.04ZM30.9656 10.24C32.2936 10.24 33.1256 8.768 33.1256 6.64C33.1256 4.512 32.2936 3.056 30.9656 3.056C29.6376 3.056 28.8056 4.512 28.8056 6.64C28.8056 8.768 29.6376 10.24 30.9656 10.24ZM43.6592 6.608C44.5072 6.976 45.0192 7.776 45.0192 8.816C45.0192 10.88 43.4832 12.24 41.2272 12.24C38.9872 12.24 37.4352 10.88 37.2592 8.848L39.2912 8.448C39.4512 9.632 40.0752 10.352 41.2272 10.352C42.2672 10.352 43.0352 9.744 43.0352 8.832C43.0352 8.032 42.4752 7.536 41.4192 7.536H39.8672V5.648H41.2912C42.2992 5.648 42.8592 5.168 42.8592 4.384C42.8592 3.52 42.2192 2.944 41.2272 2.944C40.2352 2.944 39.4832 3.536 39.3872 4.88L37.4032 4.48C37.5792 2.448 39.0512 1.04 41.2272 1.04C43.4032 1.04 44.8593 2.4 44.8593 4.384C44.8593 5.424 44.4113 6.208 43.6592 6.608Z" fill="white"/>
</svg>
