<svg width="12" height="12" viewBox="0 0 12 12" fill="none" xmlns="http://www.w3.org/2000/svg">
<path d="M6.02955 1.65463C6.09718 1.67734 6.09718 1.77504 6.02955 1.79775C5.08335 2.11426 4.77801 2.42803 4.46998 3.40026C4.44855 3.46975 4.35347 3.46975 4.33137 3.40026C4.02334 2.42801 3.71798 2.11495 2.7718 1.79775C2.70417 1.77504 2.70417 1.67734 2.7718 1.65463C3.71733 1.33743 4.02267 1.02435 4.33137 0.0521207C4.35347 -0.0173736 4.44788 -0.0173736 4.46998 0.0521207C4.77868 1.02437 5.08337 1.33743 6.02955 1.65463Z" fill="#7FEDED"/>
<path d="M0.997237 1.34706C1.0113 1.3044 1.06956 1.3044 1.08362 1.34706C1.27447 1.94912 1.46329 2.14315 2.04922 2.33925C2.0914 2.35301 2.0914 2.41356 2.04922 2.42732C1.46329 2.62342 1.27447 2.81813 1.08362 3.41951C1.06956 3.46217 1.01063 3.46217 0.997237 3.41951C0.80639 2.81815 0.617567 2.62342 0.0316393 2.42732C-0.0105464 2.41356 -0.0105464 2.35301 0.0316393 2.33925C0.617567 2.14315 0.80639 1.94844 0.997237 1.34706Z" fill="#7FEDED"/>
<path d="M8.02499 4.51965C8.02499 4.41162 7.96874 4.31185 7.87767 4.2575L6.54512 3.46691C6.45337 3.41255 6.34155 3.41255 6.25048 3.46691L4.91793 4.2575C4.82619 4.31185 4.77061 4.41163 4.77061 4.51965V7.31735C4.77061 7.42538 4.82686 7.52447 4.91793 7.57882L6.25048 8.36941C6.34155 8.42377 6.45405 8.42377 6.54512 8.36941L7.87767 7.57882C7.96941 7.52515 8.02499 7.42538 8.02499 7.31735V4.51965Z" fill="#7FEDED"/>
<path d="M11.0028 9.89556C11.1936 10.4969 11.3831 10.6916 11.9684 10.8877C12.0105 10.9015 12.0105 10.9621 11.9684 10.9758C11.3831 11.1719 11.1936 11.3666 11.0028 11.968C10.9894 12.0107 10.9304 12.0107 10.917 11.968C10.7262 11.3666 10.5374 11.1719 9.95145 10.9758C9.90927 10.9621 9.90927 10.9015 9.95145 10.8877C10.5367 10.6916 10.7262 10.4969 10.917 9.89556C10.9304 9.8529 10.9894 9.8529 11.0028 9.89556Z" fill="#7FEDED"/>
<path d="M4.52962 8.29436L5.83138 9.06705C5.92044 9.12003 5.97525 9.21773 5.97525 9.32232V10.7487C5.97525 10.9757 5.73554 11.1175 5.54402 11.0039L3.04037 9.51842C2.84886 9.40489 2.84886 9.12072 3.04037 9.00719L4.24168 8.29436C4.33142 8.24137 4.44056 8.24137 4.52962 8.29436Z" fill="#7FEDED"/>
<path d="M8.21458 3.50753L6.91282 2.73483C6.82443 2.68185 6.76962 2.58415 6.76895 2.48025V1.05389C6.76895 0.826832 7.00867 0.684401 7.20018 0.79862L9.70383 2.28346C9.89535 2.39699 9.89535 2.68116 9.70383 2.79469L8.50186 3.50753C8.41347 3.56051 8.30364 3.56051 8.21458 3.50753Z" fill="#7FEDED"/>
<path d="M3.8212 7.47351C3.90959 7.42121 3.9645 7.32351 3.9645 7.21824L3.96518 4.4626C3.96518 4.36352 3.91697 4.27064 3.83661 4.21628L2.63464 3.40161C2.44312 3.27156 2.18866 3.41262 2.18866 3.64793V7.93176C2.18866 8.15882 2.42838 8.30056 2.6199 8.18703L3.8212 7.47351Z" fill="#7FEDED"/>
<path d="M8.29694 8.2806C8.38601 8.22762 8.49515 8.22762 8.58421 8.2806L9.78609 8.99412C9.9776 9.10765 9.9776 9.39182 9.78609 9.50535L7.28244 10.9909C7.09026 11.1044 6.85121 10.962 6.85121 10.7349V9.30856C6.85121 9.20398 6.90612 9.10627 6.99518 9.05329L8.29694 8.2806Z" fill="#7FEDED"/>
<path d="M10.6018 3.7724C10.6018 3.54534 10.3621 3.4036 10.1705 3.51713L8.96924 4.22986C8.88018 4.28284 8.82528 4.37985 8.82528 4.48582V7.21746C8.82528 7.32273 8.88018 7.41975 8.96924 7.47273L10.1705 8.18626C10.3627 8.2998 10.6018 8.15806 10.6018 7.93099V3.7724Z" fill="#7FEDED"/>
</svg>
