<svg width="28" height="28" viewBox="0 0 28 28" fill="none" xmlns="http://www.w3.org/2000/svg">
<path d="M22.3659 10.1194C22.808 9.33135 23 8.4179 23 7.3791C23 6.00597 22.68 4.76417 21.9179 3.65373C21.2198 2.54923 20.2017 1.62984 18.8636 0.979077C17.5313 0.328351 15.9373 0 14.2211 0C12.3129 0 10.7246 0.394014 9.32256 1.1761C7.8623 1.95819 6.8442 2.9373 6.08209 4.17911C5.38395 5.35521 5 6.52537 5 7.70147C5 8.29251 5.19196 8.81191 5.69813 9.27163C6.14607 9.79103 6.71623 10.0537 7.42015 10.0537C8.49645 10.0537 9.32256 9.33135 9.70651 7.96416C10.1545 6.59103 10.6606 5.61192 11.2948 4.89549C11.9347 4.24477 12.8888 3.91642 14.2211 3.91642C15.3672 3.91642 16.2573 4.24477 17.0194 4.89549C17.7233 5.54626 18.0375 6.39401 18.0375 7.3791C18.0375 7.8985 17.9735 8.35224 17.7233 8.81191C17.4674 9.27163 17.2114 9.6597 16.8274 9.98805C16.6058 10.2154 16.2541 10.5437 15.7986 10.9688C15.6083 11.1465 15.3998 11.3411 15.1752 11.5522C14.285 12.3343 13.5869 12.991 13.075 13.5761C12.5688 14.1612 12.1209 14.8179 11.8707 15.6C11.5507 16.3164 11.3588 17.2298 11.3588 18.2746C11.3588 19.1224 11.5507 19.7134 11.9987 20.1672C12.4408 20.5612 12.9528 20.7582 13.5869 20.7582C14.797 20.7582 15.4951 20.1672 15.7511 18.8597C15.7873 18.6865 15.8239 18.5249 15.8577 18.3763C15.9378 18.0228 16.0013 17.7431 16.0013 17.5582C16.0748 17.445 16.1272 17.3101 16.1828 17.1672C16.2239 17.0613 16.2668 16.951 16.3212 16.8418C16.4493 16.6448 16.6412 16.3821 16.8914 16.0537C17.0097 15.8955 17.2009 15.7101 17.4187 15.4989C17.5544 15.3674 17.7004 15.2258 17.8455 15.0746C19.3116 13.7074 20.3297 12.7284 20.8998 12.1373C21.4758 11.6179 21.9819 10.9015 22.3659 10.1194Z" fill="#FFC89A"/>
<path d="M15.6871 27.2836C16.1933 26.7582 16.4493 26.1075 16.4493 25.194C16.4493 24.4776 16.1933 23.8209 15.6871 23.2358C15.1752 22.7164 14.541 22.4537 13.7789 22.4537C13.0168 22.4537 12.3769 22.7164 11.8707 23.2358C11.2948 23.8209 11.0446 24.4776 11.0446 25.194C11.0446 26.1075 11.2948 26.7582 11.8707 27.2836C12.4408 27.7373 13.075 28 13.7789 28C14.477 28 15.1112 27.7373 15.6871 27.2836Z" fill="#FFC89A"/>
</svg>
