<svg width="12" height="12" viewBox="0 0 12 12" fill="none" xmlns="http://www.w3.org/2000/svg">
<path d="M2.1664 5.07931H2.45968C2.64651 5.66341 2.98231 6.1918 3.43566 6.61509C3.889 7.03837 4.4451 7.34273 5.05196 7.49969V8.49368H4.37361C4.21974 8.49368 4.07217 8.55325 3.96336 8.65927C3.85456 8.76529 3.79343 8.90908 3.79343 9.05902V9.6902H3.57667C3.4228 9.6902 3.27523 9.74977 3.16642 9.85579C3.05762 9.96181 2.99649 10.1056 2.99649 10.2555V11.4359C2.99683 11.5856 3.05811 11.7291 3.16687 11.8349C3.27564 11.9406 3.42302 12 3.57667 12H8.42206C8.57593 12 8.7235 11.9404 8.8323 11.8344C8.94111 11.7284 9.00223 11.5846 9.00223 11.4347V10.2543C9.00189 10.1046 8.94062 9.9611 8.83185 9.85535C8.72309 9.7496 8.57571 9.6902 8.42206 9.6902H8.20529V9.0615C8.20529 8.91157 8.14417 8.76777 8.03536 8.66175C7.92656 8.55573 7.77899 8.49617 7.62512 8.49617H6.94677V7.50217C7.55161 7.34569 8.10606 7.04278 8.5586 6.62158C9.01113 6.20038 9.34708 5.67457 9.53523 5.09298H9.83232C10.4072 5.09298 10.9586 4.87044 11.3651 4.47432C11.7716 4.0782 12 3.54094 12 2.98074V1.40277C12 1.26141 11.9424 1.12583 11.8398 1.02587C11.7372 0.925904 11.5981 0.869745 11.453 0.869745H9.70481V0.359081C9.70481 0.263846 9.66599 0.172513 9.59688 0.105172C9.52777 0.0378316 9.43404 0 9.33631 0H2.66242C2.56468 0 2.47095 0.0378316 2.40185 0.105172C2.33274 0.172513 2.29391 0.263846 2.29391 0.359081V0.856078H0.547021C0.475078 0.856078 0.403841 0.869906 0.337391 0.896771C0.27094 0.923636 0.21058 0.96301 0.159768 1.01264C0.108956 1.06227 0.0686895 1.12117 0.0412743 1.18599C0.0138591 1.2508 -0.000166213 1.32025 1.48627e-06 1.39035V2.96832C0.000339306 3.52809 0.228693 4.06484 0.634899 4.46065C1.0411 4.85647 1.59194 5.07898 2.1664 5.07931ZM9.70481 4.01201V1.93705H10.9034V2.98074C10.9031 3.25745 10.7901 3.52272 10.5893 3.71838C10.3885 3.91404 10.1163 4.02411 9.83232 4.02444H9.70481V4.01201ZM4.58145 3.14227C4.59396 3.10458 4.61709 3.07109 4.64821 3.0456C4.67932 3.02012 4.71716 3.00367 4.75741 2.99814L5.4804 2.89377L5.803 2.25637C5.82096 2.22071 5.84882 2.19068 5.88342 2.16967C5.91802 2.14867 5.95796 2.13753 5.99873 2.13753C6.03949 2.13753 6.07944 2.14867 6.11403 2.16967C6.14863 2.19068 6.17649 2.22071 6.19445 2.25637L6.51833 2.89377L7.24004 2.99565C7.28041 3.00125 7.31836 3.01777 7.34958 3.04333C7.3808 3.0689 7.40404 3.10248 7.41666 3.14026C7.42927 3.17805 7.43076 3.21853 7.42096 3.2571C7.41115 3.29567 7.39044 3.33078 7.36117 3.35846L6.83838 3.85546L6.96589 4.55622C6.97106 4.58674 6.96937 4.618 6.96093 4.64782C6.95249 4.67764 6.93751 4.70532 6.91702 4.72895C6.89653 4.75258 6.87102 4.77159 6.84225 4.78467C6.81348 4.79775 6.78215 4.80459 6.7504 4.80472C6.71483 4.80462 6.67982 4.79609 6.64839 4.77987L5.99936 4.45185L5.35416 4.78236C5.31804 4.8012 5.2772 4.80974 5.23633 4.807C5.19546 4.80427 5.1562 4.79037 5.12306 4.76689C5.08992 4.74342 5.06424 4.71133 5.04896 4.67428C5.03368 4.63724 5.02942 4.59676 5.03666 4.55747L5.16417 3.8567L4.64138 3.3597C4.61149 3.33257 4.59002 3.2978 4.57943 3.25935C4.56883 3.22091 4.56953 3.18034 4.58145 3.14227ZM1.09404 1.92462H2.29264V4.01201H2.16513C1.88116 4.01168 1.60892 3.90162 1.40813 3.70596C1.20733 3.5103 1.09438 3.24502 1.09404 2.96832V1.92462Z" fill="#FFC89A"/>
</svg>
