<svg width="393" height="340" viewBox="0 0 393 340" fill="none" xmlns="http://www.w3.org/2000/svg">
<g clip-path="url(#clip0_1131_509)">
<path fill-rule="evenodd" clip-rule="evenodd" d="M24 340H0V0H393V340H369V128C369 108.118 352.882 92 333 92H60C40.1178 92 24 108.118 24 128V340ZM373 336V128C373 105.909 355.091 88 333 88H60C37.9086 88 20 105.909 20 128V336H4V4H389V336H373Z" fill="#713E2B"/>
<path d="M0 340H20V128C20 105.909 37.9086 88 60 88H333C355.091 88 373 105.909 373 128V340H393V0H0V340Z" fill="#3D2823"/>
</g>
<defs>
<clipPath id="clip0_1131_509">
<rect width="393" height="340" fill="white"/>
</clipPath>
</defs>
</svg>
