<svg width="393" height="340" viewBox="0 0 393 340" fill="none" xmlns="http://www.w3.org/2000/svg">
<g clip-path="url(#clip0_1131_515)">
<path d="M0 340C13.2549 340 24 329.255 24 316V0H20V316C20 325.676 13.129 333.747 4 335.6C2.70756 335.862 1.36986 336 0 336V340Z" fill="#713E2B"/>
<path d="M369 0V316C369 329.255 379.745 340 393 340V336C391.63 336 390.292 335.862 389 335.6C379.871 333.747 373 325.676 373 316V0H369Z" fill="#713E2B"/>
<path d="M0 0V336C11.0457 336 20 327.046 20 316V0H0Z" fill="#3D2823"/>
<path d="M373 0V316C373 327.046 381.954 336 393 336V0H373Z" fill="#3D2823"/>
</g>
<defs>
<clipPath id="clip0_1131_515">
<rect width="393" height="340" fill="white"/>
</clipPath>
</defs>
</svg>
