<svg width="12" height="12" viewBox="0 0 12 12" fill="none" xmlns="http://www.w3.org/2000/svg">
<path fill-rule="evenodd" clip-rule="evenodd" d="M1.76131 1.75489C2.88598 0.631281 4.41023 -0.000635626 6 -0.00238037C7.58967 -0.000312212 9.11373 0.631709 10.2383 1.75524C11.3629 2.87878 11.9964 4.40223 12 5.9919V6.00239C12 7.59369 11.3679 9.11981 10.2426 10.245C9.11742 11.3702 7.5913 12.0024 6 12.0024C4.4087 12.0024 2.88258 11.3702 1.75736 10.245C0.632141 9.11981 0 7.59369 0 6.00239V5.9919C0.0032608 4.40213 0.636631 2.87849 1.76131 1.75489ZM10.2248 2.73095C9.64513 1.98133 8.87668 1.39924 7.9981 1.04429L7.69618 1.90048C8.39725 2.19209 9.012 2.65832 9.48189 3.25476L10.2248 2.73095ZM4.30476 1.90048L4.00188 1.04429C3.12303 1.39922 2.35426 1.9813 1.77428 2.73095L2.5181 3.25381C2.98793 2.65714 3.60314 2.19115 4.30476 1.90048ZM1.77428 9.26238C2.35427 10.012 3.12303 10.5941 4.00188 10.949L4.30476 10.0938C3.60289 9.80312 2.98761 9.33673 2.51809 8.7395L1.77428 9.26238ZM7.69617 10.0938L7.9981 10.949C8.87667 10.5941 9.64512 10.012 10.2247 9.26238L9.48189 8.73857C9.01231 9.33556 8.39749 9.80216 7.69617 10.0938ZM10.1781 6.58428H10.6676C10.8235 6.58428 10.9729 6.52237 11.0831 6.41217C11.1933 6.30198 11.2552 6.15252 11.2552 5.99667C11.2552 5.84083 11.1933 5.69137 11.0831 5.58117C10.9729 5.47097 10.8235 5.40906 10.6676 5.40906H10.1781C10.0486 5.40833 9.92287 5.36519 9.82019 5.28624C9.71751 5.20729 9.64352 5.09689 9.60953 4.97191C9.44007 4.38059 9.12839 3.83976 8.70173 3.39666C8.27507 2.95356 7.7464 2.62167 7.16191 2.42999C7.10452 2.16434 6.95787 1.92636 6.74637 1.75568C6.53488 1.58499 6.2713 1.4919 5.99952 1.4919C5.72774 1.4919 5.46417 1.58499 5.25267 1.75568C5.04117 1.92636 4.89452 2.16434 4.83713 2.42999C4.2528 2.62197 3.7243 2.95396 3.29768 3.39702C2.87106 3.84007 2.55928 4.38074 2.38951 4.97191C2.35552 5.09689 2.28153 5.20729 2.17885 5.28624C2.07617 5.36519 1.95046 5.40833 1.82094 5.40906H1.33143C1.17558 5.40906 1.02612 5.47097 0.915924 5.58117C0.805726 5.69137 0.743817 5.84083 0.743817 5.99667C0.743817 6.15252 0.805726 6.30198 0.915924 6.41217C1.02612 6.52237 1.17558 6.58428 1.33143 6.58428H1.82094C1.95059 6.58503 2.07642 6.62829 2.17912 6.70743C2.28183 6.78656 2.35574 6.89721 2.38951 7.02239C2.55928 7.61355 2.87107 8.15422 3.29768 8.59727C3.7243 9.04032 4.2528 9.3723 4.83713 9.56429C4.89475 9.82974 5.0415 10.0675 5.25296 10.238C5.46443 10.4084 5.72788 10.5014 5.99952 10.5014C6.27115 10.5014 6.5346 10.4084 6.74607 10.238C6.95754 10.0675 7.10428 9.82974 7.1619 9.56429C7.74639 9.3726 8.27506 9.04071 8.70171 8.59762C9.12837 8.15452 9.44005 7.6137 9.60951 7.02238C9.64328 6.8972 9.71719 6.78656 9.8199 6.70742C9.9226 6.62829 10.0484 6.58502 10.1781 6.58428ZM6 3.5C4.61929 3.5 3.5 4.61929 3.5 6C3.5 7.38071 4.61929 8.5 6 8.5C7.38071 8.5 8.5 7.38071 8.5 6C8.5 4.61929 7.38071 3.5 6 3.5Z" fill="#6ADF6E"/>
</svg>
